# xmcd CD database file
#
# Track frame offsets:
#	150
#	18800
#	41810
#	71935
#	91782
#	115205
#	136012
#	156457
#	176365
#	201945
#	221065
#	237560
#
# Disc length: 3471 seconds
#
# Revision: 0
# Processed by: cddbd v1.5.2PL0 Copyright (c) Steve Scherf et al.
# Submitted via: Feurio! 1.68 - http://www.feurio.com
#
DISCID=aa0d8d0c
DTITLE=Lalah Hathaway - Self Portrait
DYEAR=2008
DGENRE=R&B
TTITLE0=Let Go
TTITLE1=Breathe
TTITLE2=On Your Own
TTITLE3=For Always
TTITLE4=That Was Then
TTITLE5=Learning To Swim
TTITLE6=One Mile
TTITLE7=Little Girl
TTITLE8=What Goes Around
TTITLE9=Naked Truth
TTITLE10=UDO
TTITLE11=Tragic Inevitability
EXTD=
EXTT0=
EXTT1=
EXTT2=
EXTT3=
EXTT4=
EXTT5=
EXTT6=
EXTT7=
EXTT8=
EXTT9=
EXTT10=
EXTT11=
PLAYORDER=
